<svg xmlns="http://www.w3.org/2000/svg" viewBox="0 0 1254 1254">
  <style>
    /* El favicon no hereda color: se adapta a la barra del navegador. */
    path { fill: #0a0a0a; }
    @media (prefers-color-scheme: dark) { path { fill: #fafafa; } }
  </style>
  <path d="M1051.35,509.17c-27.52-40.32-65.59-72.73-110.09-93.74-47.73-22.53-101.97-32.26-161.22-28.9-90.99,5.15-194.24,43.15-283.26,104.28-22.14,15.2-55.6,38.17-66.62,64.27-15.1,35.74,2.89,55.55,18.75,73.02,4.6,5.07,9.36,10.31,13.56,16.03,39.91,54.3,45.39,140.8-14.52,191.55-26.99,22.87-64.48,30.7-97.84,20.44-29.21-8.98-49.76-29.96-57.86-59.07-2.59-9.3-3.19-19.51-3.83-30.32-1.36-23.13-2.9-49.34-26.69-67.64-21.63-16.65-41.34-14.58-54.06-9.91-24.23,8.88-45.8,36.7-52.45,67.65-13.17,61.22,7.15,137.33,53.04,198.64,39.35,52.58,91.95,84.95,144.3,88.82,55.64,4.12,105.59-13.2,148.45-51.46,79.12-70.62,110.97-190.82,114.2-272.3.82-20.74-.43-40.54-1.64-59.7-3.27-51.75-6.09-96.45,32.09-141.14,42.34-49.55,109.24-74.2,178.96-65.94,66.76,7.91,123.47,45.7,151.7,101.1,28.66,56.25,26.76,124.87-5.09,183.54-29.72,54.76-80.02,89.68-137.99,95.8-15.72,1.65-31.17,0-47.52-1.75-18.13-1.94-36.87-3.95-55.91-1.01-32.9,5.09-60.03,19.93-78.47,42.91-16.58,20.67-25.2,46.99-24.28,74.13.91,26.91,11.13,52.4,28.76,71.78,19.56,21.49,46.93,34.31,79.16,37.08,7.07.61,14.17.91,21.29.91,59.09,0,119.75-20.77,176.74-60.73,57.48-40.3,106.34-98.14,134.04-158.67,52.62-114.94,46.75-238.18-15.7-329.66Z" />
  <path d="M236.08,567.11c14.04,0,28.96-3.01,44.11-9.14,37.36-15.12,53.05-40.46,69.66-67.28,6.02-9.71,12.24-19.76,19.71-29.57,57.63-75.71,169.39-138.43,298.95-167.76,12.92-2.92,26.68-5.04,39.98-7.09,14.05-2.16,28.58-4.4,42.26-7.6,14.23-3.33,31.3-14.13,35.14-29.95,1.53-6.3,2.04-18.6-11.65-30.27-31.78-27.08-165.15-22.38-166.48-22.32-80.22,3.9-170.59,26.82-247.93,62.89-63.55,29.64-148.54,82.33-192.5,165.04-22.12,41.61-19.48,87.29,6.72,116.36,15.87,17.61,37.64,26.69,62.02,26.69Z" />
</svg>
